<svg xmlns="http://www.w3.org/2000/svg" xmlns:xlink="http://www.w3.org/1999/xlink" width="1366" zoomAndPan="magnify" viewBox="0 0 1024.5 576" height="768" preserveAspectRatio="xMidYMid meet" version="1.0"><defs><clipPath id="cc6efd6135"><path d="M 871 392 L 1009 392 L 1009 530 L 871 530 Z M 871 392 " clip-rule="nonzero"/></clipPath><clipPath id="28f776177f"><path d="M 903.679688 389.285156 L 1011.890625 425.074219 L 975.960938 533.707031 L 867.75 497.917969 Z M 903.679688 389.285156 " clip-rule="nonzero"/></clipPath><clipPath id="e7339effaf"><path d="M 916.488281 393.523438 L 999.078125 420.835938 C 1006.152344 423.175781 1009.992188 430.808594 1007.652344 437.882812 L 980.332031 520.488281 C 977.992188 527.566406 970.359375 531.402344 963.285156 529.0625 L 880.695312 501.75 C 873.621094 499.410156 869.78125 491.777344 872.121094 484.703125 L 899.441406 402.097656 C 901.78125 395.019531 909.414062 391.183594 916.488281 393.523438 Z M 916.488281 393.523438 " clip-rule="nonzero"/></clipPath><clipPath id="90b5be7c90"><path d="M 0 0 L 138 0 L 138 138 L 0 138 Z M 0 0 " clip-rule="nonzero"/></clipPath><clipPath id="26400068c1"><path d="M 32.679688 -2.714844 L 140.890625 33.074219 L 104.960938 141.707031 L -3.25 105.917969 Z M 32.679688 -2.714844 " clip-rule="nonzero"/></clipPath><clipPath id="616a2399eb"><path d="M 45.488281 1.523438 L 128.078125 28.835938 C 135.152344 31.175781 138.992188 38.808594 136.652344 45.882812 L 109.332031 128.488281 C 106.992188 135.566406 99.359375 139.402344 92.285156 137.0625 L 9.695312 109.75 C 2.621094 107.410156 -1.21875 99.777344 1.121094 92.703125 L 28.441406 10.097656 C 30.78125 3.019531 38.414062 -0.816406 45.488281 1.523438 Z M 45.488281 1.523438 " clip-rule="nonzero"/></clipPath><clipPath id="9e79d6d616"><rect x="0" width="138" y="0" height="138"/></clipPath><clipPath id="967a443862"><path d="M 853 248 L 991 248 L 991 386 L 853 386 Z M 853 248 " clip-rule="nonzero"/></clipPath><clipPath id="3cb3a485ca"><path d="M 885.925781 245.269531 L 994.136719 281.058594 L 958.210938 389.691406 L 849.996094 353.902344 Z M 885.925781 245.269531 " clip-rule="nonzero"/></clipPath><clipPath id="ed637e2391"><path d="M 898.738281 249.507812 L 981.324219 276.820312 C 988.402344 279.160156 992.238281 286.792969 989.898438 293.867188 L 962.582031 376.472656 C 960.242188 383.550781 952.609375 387.386719 945.53125 385.046875 L 862.945312 357.734375 C 855.867188 355.394531 852.03125 347.761719 854.371094 340.6875 L 881.6875 258.082031 C 884.027344 251.003906 891.660156 247.167969 898.738281 249.507812 Z M 898.738281 249.507812 " clip-rule="nonzero"/></clipPath><clipPath id="feb41aaae3"><path d="M 0 0 L 138 0 L 138 138 L 0 138 Z M 0 0 " clip-rule="nonzero"/></clipPath><clipPath id="346550f493"><path d="M 32.925781 -2.730469 L 141.136719 33.058594 L 105.210938 141.691406 L -3.003906 105.902344 Z M 32.925781 -2.730469 " clip-rule="nonzero"/></clipPath><clipPath id="f1f2b728b6"><path d="M 45.738281 1.507812 L 128.324219 28.820312 C 135.402344 31.160156 139.238281 38.792969 136.898438 45.867188 L 109.582031 128.472656 C 107.242188 135.550781 99.609375 139.386719 92.53125 137.046875 L 9.945312 109.734375 C 2.867188 107.394531 -0.96875 99.761719 1.371094 92.6875 L 28.6875 10.082031 C 31.027344 3.003906 38.660156 -0.832031 45.738281 1.507812 Z M 45.738281 1.507812 " clip-rule="nonzero"/></clipPath><clipPath id="0428a82b95"><rect x="0" width="138" y="0" height="138"/></clipPath><clipPath id="c47dd82cee"><path d="M 835 104 L 973 104 L 973 242 L 835 242 Z M 835 104 " clip-rule="nonzero"/></clipPath><clipPath id="34db9c9354"><path d="M 868.171875 101.253906 L 976.382812 137.042969 L 940.457031 245.675781 L 832.246094 209.890625 Z M 868.171875 101.253906 " clip-rule="nonzero"/></clipPath><clipPath id="38489f4be3"><path d="M 880.984375 105.492188 L 963.574219 132.804688 C 970.648438 135.144531 974.488281 142.777344 972.148438 149.855469 L 944.828125 232.460938 C 942.488281 239.535156 934.855469 243.375 927.78125 241.035156 L 845.191406 213.71875 C 838.117188 211.378906 834.277344 203.746094 836.617188 196.671875 L 863.9375 114.066406 C 866.277344 106.992188 873.910156 103.152344 880.984375 105.492188 Z M 880.984375 105.492188 " clip-rule="nonzero"/></clipPath><clipPath id="6a5e88b2bf"><path d="M 0 0 L 138 0 L 138 138 L 0 138 Z M 0 0 " clip-rule="nonzero"/></clipPath><clipPath id="a401cfdbaa"><path d="M 33.171875 -2.746094 L 141.382812 33.042969 L 105.457031 141.675781 L -2.753906 105.890625 Z M 33.171875 -2.746094 " clip-rule="nonzero"/></clipPath><clipPath id="6e93e310a0"><path d="M 45.984375 1.492188 L 128.574219 28.804688 C 135.648438 31.144531 139.488281 38.777344 137.148438 45.855469 L 109.828125 128.460938 C 107.488281 135.535156 99.855469 139.375 92.78125 137.035156 L 10.191406 109.71875 C 3.117188 107.378906 -0.722656 99.746094 1.617188 92.671875 L 28.9375 10.066406 C 31.277344 2.992188 38.910156 -0.847656 45.984375 1.492188 Z M 45.984375 1.492188 " clip-rule="nonzero"/></clipPath><clipPath id="07494eb351"><rect x="0" width="138" y="0" height="138"/></clipPath><clipPath id="98cc22bcbb"><path d="M 818 0.140625 L 956 0.140625 L 956 98 L 818 98 Z M 818 0.140625 " clip-rule="nonzero"/></clipPath><clipPath id="098fb45e68"><path d="M 850.421875 -42.761719 L 958.632812 -6.972656 L 922.703125 101.660156 L 814.492188 65.875 Z M 850.421875 -42.761719 " clip-rule="nonzero"/></clipPath><clipPath id="4624ee4164"><path d="M 863.230469 -38.523438 L 945.820312 -11.207031 C 952.898438 -8.867188 956.734375 -1.238281 954.394531 5.839844 L 927.074219 88.445312 C 924.734375 95.519531 917.101562 99.359375 910.027344 97.019531 L 827.4375 69.703125 C 820.363281 67.363281 816.523438 59.730469 818.863281 52.65625 L 846.183594 -29.949219 C 848.523438 -37.023438 856.15625 -40.863281 863.230469 -38.523438 Z M 863.230469 -38.523438 " clip-rule="nonzero"/></clipPath><clipPath id="d076f4fe75"><path d="M 0 0.140625 L 138 0.140625 L 138 98 L 0 98 Z M 0 0.140625 " clip-rule="nonzero"/></clipPath><clipPath id="194411f81f"><path d="M 32.421875 -42.761719 L 140.632812 -6.972656 L 104.703125 101.660156 L -3.507812 65.875 Z M 32.421875 -42.761719 " clip-rule="nonzero"/></clipPath><clipPath id="caf1348bd3"><path d="M 45.230469 -38.523438 L 127.820312 -11.207031 C 134.898438 -8.867188 138.734375 -1.238281 136.394531 5.839844 L 109.074219 88.445312 C 106.734375 95.519531 99.101562 99.359375 92.027344 97.019531 L 9.4375 69.703125 C 2.363281 67.363281 -1.476562 59.730469 0.863281 52.65625 L 28.183594 -29.949219 C 30.523438 -37.023438 38.15625 -40.863281 45.230469 -38.523438 Z M 45.230469 -38.523438 " clip-rule="nonzero"/></clipPath><clipPath id="be12bb4d16"><rect x="0" width="138" y="0" height="98"/></clipPath><clipPath id="c9f1a15b3c"><path d="M 979 147 L 1024 147 L 1024 285 L 979 285 Z M 979 147 " clip-rule="nonzero"/></clipPath><clipPath id="bbbba207ee"><path d="M 1012.179688 143.984375 L 1120.390625 179.773438 L 1084.460938 288.40625 L 976.25 252.621094 Z M 1012.179688 143.984375 " clip-rule="nonzero"/></clipPath><clipPath id="e858cde63d"><path d="M 1024.988281 148.222656 L 1107.578125 175.539062 C 1114.652344 177.878906 1118.492188 185.511719 1116.152344 192.585938 L 1088.832031 275.191406 C 1086.492188 282.265625 1078.859375 286.105469 1071.785156 283.765625 L 989.195312 256.449219 C 982.121094 254.109375 978.28125 246.476562 980.621094 239.402344 L 1007.941406 156.796875 C 1010.28125 149.722656 1017.914062 145.882812 1024.988281 148.222656 Z M 1024.988281 148.222656 " clip-rule="nonzero"/></clipPath><clipPath id="8144fd36e4"><path d="M 0 0 L 45 0 L 45 138 L 0 138 Z M 0 0 " clip-rule="nonzero"/></clipPath><clipPath id="1f876669bc"><path d="M 33.179688 -3.015625 L 141.390625 32.773438 L 105.460938 141.40625 L -2.75 105.621094 Z M 33.179688 -3.015625 " clip-rule="nonzero"/></clipPath><clipPath id="8bd724ef37"><path d="M 45.988281 1.222656 L 128.578125 28.539062 C 135.652344 30.878906 139.492188 38.511719 137.152344 45.585938 L 109.832031 128.191406 C 107.492188 135.265625 99.859375 139.105469 92.785156 136.765625 L 10.195312 109.449219 C 3.121094 107.109375 -0.71875 99.476562 1.621094 92.402344 L 28.941406 9.796875 C 31.28125 2.722656 38.914062 -1.117188 45.988281 1.222656 Z M 45.988281 1.222656 " clip-rule="nonzero"/></clipPath><clipPath id="f62ceb3af1"><rect x="0" width="45" y="0" height="138"/></clipPath><clipPath id="600a10407b"><path d="M 997 291 L 1024 291 L 1024 429 L 997 429 Z M 997 291 " clip-rule="nonzero"/></clipPath><clipPath id="caa6ca6357"><path d="M 1029.929688 288 L 1138.140625 323.789062 L 1102.214844 432.421875 L 994.003906 396.636719 Z M 1029.929688 288 " clip-rule="nonzero"/></clipPath><clipPath id="799ff48ad0"><path d="M 1042.742188 292.238281 L 1125.332031 319.550781 C 1132.40625 321.890625 1136.246094 329.523438 1133.90625 336.601562 L 1106.585938 419.207031 C 1104.246094 426.28125 1096.613281 430.121094 1089.539062 427.78125 L 1006.949219 400.464844 C 999.871094 398.125 996.035156 390.492188 998.375 383.417969 L 1025.691406 300.8125 C 1028.035156 293.738281 1035.664062 289.898438 1042.742188 292.238281 Z M 1042.742188 292.238281 " clip-rule="nonzero"/></clipPath><clipPath id="c219626f63"><path d="M 0 0 L 27 0 L 27 138 L 0 138 Z M 0 0 " clip-rule="nonzero"/></clipPath><clipPath id="2e80b5c700"><path d="M 32.929688 -3 L 141.140625 32.789062 L 105.214844 141.421875 L -2.996094 105.636719 Z M 32.929688 -3 " clip-rule="nonzero"/></clipPath><clipPath id="0537879dbb"><path d="M 45.742188 1.238281 L 128.332031 28.550781 C 135.40625 30.890625 139.246094 38.523438 136.90625 45.601562 L 109.585938 128.207031 C 107.246094 135.28125 99.613281 139.121094 92.539062 136.78125 L 9.949219 109.464844 C 2.871094 107.125 -0.964844 99.492188 1.375 92.417969 L 28.691406 9.8125 C 31.035156 2.738281 38.664062 -1.101562 45.742188 1.238281 Z M 45.742188 1.238281 " clip-rule="nonzero"/></clipPath><clipPath id="caefd67f11"><rect x="0" width="27" y="0" height="138"/></clipPath><clipPath id="0b2de8f2d1"><path d="M 867 0.140625 L 903 0.140625 L 903 69 L 867 69 Z M 867 0.140625 " clip-rule="nonzero"/></clipPath><clipPath id="d63fff70d5"><path d="M 878.863281 -15.359375 L 927.609375 9.503906 L 894.570312 74.28125 L 845.820312 49.414062 Z M 878.863281 -15.359375 " clip-rule="nonzero"/></clipPath><clipPath id="03477f0a3b"><path d="M 878.863281 -15.359375 L 927.609375 9.503906 L 894.570312 74.28125 L 845.820312 49.414062 Z M 878.863281 -15.359375 " clip-rule="nonzero"/></clipPath><clipPath id="9cafcd29ae"><path d="M 896 202 L 911 202 L 911 212.6875 L 896 212.6875 Z M 896 202 " clip-rule="nonzero"/></clipPath><clipPath id="5cc9b23ae0"><path d="M 902 133.972656 L 905 133.972656 L 905 145 L 902 145 Z M 902 133.972656 " clip-rule="nonzero"/></clipPath><clipPath id="eae9aa5b39"><path d="M 867.886719 167 L 879 167 L 879 169 L 867.886719 169 Z M 867.886719 167 " clip-rule="nonzero"/></clipPath><clipPath id="92b3c082d3"><path d="M 928 167 L 939.851562 167 L 939.851562 169 L 928 169 Z M 928 167 " clip-rule="nonzero"/></clipPath><clipPath id="8bd10b880c"><path d="M 886.628906 291.953125 L 958.59375 291.953125 L 958.59375 343.679688 L 886.628906 343.679688 Z M 886.628906 291.953125 " clip-rule="nonzero"/></clipPath><clipPath id="db21e2bc48"><path d="M 905 425.085938 L 978 425.085938 L 978 497.800781 L 905 497.800781 Z M 905 425.085938 " clip-rule="nonzero"/></clipPath><clipPath id="92077c8314"><path d="M 0 324 L 112 324 L 112 462 L 0 462 Z M 0 324 " clip-rule="nonzero"/></clipPath><clipPath id="afc99d02b0"><path d="M 6.53125 320.722656 L 114.742188 356.507812 L 78.816406 465.144531 L -29.394531 429.355469 Z M 6.53125 320.722656 " clip-rule="nonzero"/></clipPath><clipPath id="0d1767875c"><path d="M 19.34375 324.957031 L 101.933594 352.273438 C 109.007812 354.613281 112.847656 362.246094 110.507812 369.320312 L 83.1875 451.925781 C 80.847656 459 73.214844 462.839844 66.140625 460.5 L -16.449219 433.1875 C -23.527344 430.847656 -27.363281 423.214844 -25.023438 416.136719 L 2.296875 333.53125 C 4.636719 326.457031 12.269531 322.617188 19.34375 324.957031 Z M 19.34375 324.957031 " clip-rule="nonzero"/></clipPath><clipPath id="2b785076d0"><path d="M 0 0 L 112 0 L 112 138 L 0 138 Z M 0 0 " clip-rule="nonzero"/></clipPath><clipPath id="890c97bdca"><path d="M 6.53125 -3.277344 L 114.742188 32.507812 L 78.816406 141.144531 L -29.394531 105.355469 Z M 6.53125 -3.277344 " clip-rule="nonzero"/></clipPath><clipPath id="501d3c5a75"><path d="M 19.34375 0.957031 L 101.933594 28.273438 C 109.007812 30.613281 112.847656 38.246094 110.507812 45.320312 L 83.1875 127.925781 C 80.847656 135 73.214844 138.839844 66.140625 136.5 L -16.449219 109.1875 C -23.527344 106.847656 -27.363281 99.214844 -25.023438 92.136719 L 2.296875 9.53125 C 4.636719 2.457031 12.269531 -1.382812 19.34375 0.957031 Z M 19.34375 0.957031 " clip-rule="nonzero"/></clipPath><clipPath id="6e3ac42209"><rect x="0" width="112" y="0" height="138"/></clipPath><clipPath id="05d8654c1a"><path d="M 0 468 L 129 468 L 129 575.859375 L 0 575.859375 Z M 0 468 " clip-rule="nonzero"/></clipPath><clipPath id="f4c1f44a0d"><path d="M 24.285156 464.738281 L 132.496094 500.523438 L 96.566406 609.160156 L -11.644531 573.371094 Z M 24.285156 464.738281 " clip-rule="nonzero"/></clipPath><clipPath id="3b0e2b0d68"><path d="M 37.09375 468.972656 L 119.683594 496.289062 C 126.761719 498.628906 130.597656 506.261719 128.257812 513.335938 L 100.9375 595.941406 C 98.597656 603.015625 90.964844 606.855469 83.890625 604.515625 L 1.300781 577.199219 C -5.773438 574.859375 -9.613281 567.226562 -7.273438 560.152344 L 20.046875 477.546875 C 22.386719 470.472656 30.019531 466.632812 37.09375 468.972656 Z M 37.09375 468.972656 " clip-rule="nonzero"/></clipPath><clipPath id="e322235401"><path d="M 0 0 L 129 0 L 129 107.859375 L 0 107.859375 Z M 0 0 " clip-rule="nonzero"/></clipPath><clipPath id="d788236753"><path d="M 24.285156 -3.261719 L 132.496094 32.523438 L 96.566406 141.160156 L -11.644531 105.371094 Z M 24.285156 -3.261719 " clip-rule="nonzero"/></clipPath><clipPath id="8ccd600cc1"><path d="M 37.09375 0.972656 L 119.683594 28.289062 C 126.761719 30.628906 130.597656 38.261719 128.257812 45.335938 L 100.9375 127.941406 C 98.597656 135.015625 90.964844 138.855469 83.890625 136.515625 L 1.300781 109.199219 C -5.773438 106.859375 -9.613281 99.226562 -7.273438 92.152344 L 20.046875 9.546875 C 22.386719 2.472656 30.019531 -1.367188 37.09375 0.972656 Z M 37.09375 0.972656 " clip-rule="nonzero"/></clipPath><clipPath id="f6a5c910f5"><rect x="0" width="129" y="0" height="108"/></clipPath><clipPath id="483f370e9b"><path d="M 12.039062 358.851562 L 73.511719 358.851562 L 73.511719 419.574219 L 12.039062 419.574219 Z M 12.039062 358.851562 " clip-rule="nonzero"/></clipPath><clipPath id="47d8e5aaf7"><path d="M 19 512 L 97.996094 512 L 97.996094 557.15625 L 19 557.15625 Z M 19 512 " clip-rule="nonzero"/></clipPath></defs><g clip-path="url(#cc6efd6135)"><g clip-path="url(#28f776177f)"><g clip-path="url(#e7339effaf)"><g transform="matrix(1, 0, 0, 1, 871, 392)"><g clip-path="url(#9e79d6d616)"><g clip-path="url(#90b5be7c90)"><g clip-path="url(#26400068c1)"><g clip-path="url(#616a2399eb)"><path fill="#cfcfcf" d="M 32.679688 -2.714844 L 140.890625 33.074219 L 105.101562 141.285156 L -3.109375 105.496094 Z M 32.679688 -2.714844 " fill-opacity="1" fill-rule="nonzero"/></g></g></g></g></g></g></g></g><g clip-path="url(#967a443862)"><g clip-path="url(#3cb3a485ca)"><g clip-path="url(#ed637e2391)"><g transform="matrix(1, 0, 0, 1, 853, 248)"><g clip-path="url(#0428a82b95)"><g clip-path="url(#feb41aaae3)"><g clip-path="url(#346550f493)"><g clip-path="url(#f1f2b728b6)"><path fill="#cfcfcf" d="M 32.925781 -2.730469 L 141.136719 33.058594 L 105.347656 141.269531 L -2.863281 105.480469 Z M 32.925781 -2.730469 " fill-opacity="1" fill-rule="nonzero"/></g></g></g></g></g></g></g></g><g clip-path="url(#c47dd82cee)"><g clip-path="url(#34db9c9354)"><g clip-path="url(#38489f4be3)"><g transform="matrix(1, 0, 0, 1, 835, 104)"><g clip-path="url(#07494eb351)"><g clip-path="url(#6a5e88b2bf)"><g clip-path="url(#a401cfdbaa)"><g clip-path="url(#6e93e310a0)"><path fill="#cfcfcf" d="M 33.171875 -2.746094 L 141.382812 33.042969 L 105.597656 141.253906 L -2.613281 105.464844 Z M 33.171875 -2.746094 " fill-opacity="1" fill-rule="nonzero"/></g></g></g></g></g></g></g></g><g clip-path="url(#98cc22bcbb)"><g clip-path="url(#098fb45e68)"><g clip-path="url(#4624ee4164)"><g transform="matrix(1, 0, 0, 1, 818, -0.000000000000058398)"><g clip-path="url(#be12bb4d16)"><g clip-path="url(#d076f4fe75)"><g clip-path="url(#194411f81f)"><g clip-path="url(#caf1348bd3)"><path fill="#cfcfcf" d="M 32.421875 -42.761719 L 140.632812 -6.972656 L 104.84375 101.238281 L -3.367188 65.453125 Z M 32.421875 -42.761719 " fill-opacity="1" fill-rule="nonzero"/></g></g></g></g></g></g></g></g><g clip-path="url(#c9f1a15b3c)"><g clip-path="url(#bbbba207ee)"><g clip-path="url(#e858cde63d)"><g transform="matrix(1, 0, 0, 1, 979, 147)"><g clip-path="url(#f62ceb3af1)"><g clip-path="url(#8144fd36e4)"><g clip-path="url(#1f876669bc)"><g clip-path="url(#8bd724ef37)"><path fill="#cfcfcf" d="M 33.179688 -3.015625 L 141.390625 32.773438 L 105.601562 140.984375 L -2.609375 105.199219 Z M 33.179688 -3.015625 " fill-opacity="1" fill-rule="nonzero"/></g></g></g></g></g></g></g></g><g clip-path="url(#600a10407b)"><g clip-path="url(#caa6ca6357)"><g clip-path="url(#799ff48ad0)"><g transform="matrix(1, 0, 0, 1, 997, 291)"><g clip-path="url(#caefd67f11)"><g clip-path="url(#c219626f63)"><g clip-path="url(#2e80b5c700)"><g clip-path="url(#0537879dbb)"><path fill="#cfcfcf" d="M 32.929688 -3 L 141.140625 32.789062 L 105.351562 141 L -2.859375 105.210938 Z M 32.929688 -3 " fill-opacity="1" fill-rule="nonzero"/></g></g></g></g></g></g></g></g><g clip-path="url(#0b2de8f2d1)"><g clip-path="url(#d63fff70d5)"><g clip-path="url(#03477f0a3b)"><path fill="#1e3a8a" d="M 898.128906 22 C 894.613281 20.675781 891.089844 20.941406 887.644531 22.179688 C 881.039062 24.5625 876.28125 29.171875 872.589844 35.011719 C 872.472656 35.203125 872.347656 35.386719 872.152344 35.546875 C 872.878906 33.441406 873.601562 31.339844 874.074219 29.167969 C 875.304688 23.464844 875.285156 17.847656 872.796875 12.441406 C 871.699219 10.054688 870.113281 8.042969 867.894531 6.582031 C 867.984375 6.113281 868.292969 6.515625 868.480469 6.4375 C 872.234375 7.691406 875.898438 7.160156 879.453125 5.710938 C 885.890625 3.085938 890.410156 -1.703125 894.015625 -7.484375 C 894.132812 -7.558594 894.183594 -7.527344 894.15625 -7.386719 C 891.648438 -1.625 890.5625 4.347656 891.664062 10.589844 C 892.429688 14.9375 894.171875 18.777344 897.902344 21.441406 C 897.941406 21.640625 898.460938 21.648438 898.128906 22 Z M 883.347656 68.035156 C 884.953125 65.269531 887.070312 62.953125 889.644531 61.082031 C 892.488281 59.003906 895.613281 57.632812 899.238281 57.730469 C 900.277344 57.757812 901.28125 58.035156 902.308594 58.167969 C 900.773438 57.042969 899.632812 55.621094 898.863281 53.949219 C 896.273438 48.332031 896.902344 42.730469 899.097656 37.164062 C 898.941406 36.914062 898.796875 37.09375 898.648438 37.183594 C 898.109375 38.242188 897.367188 39.175781 896.585938 40.042969 C 892.125 44.980469 887.015625 48.386719 879.761719 46.746094 C 881.21875 47.875 882.382812 49.113281 883.140625 50.667969 C 885.898438 56.332031 885.316406 62 883.105469 67.664062 C 883.109375 67.839844 883.046875 68.058594 883.347656 68.035156 Z M 883.347656 68.035156 " fill-opacity="1" fill-rule="nonzero"/></g></g></g><path fill="#d8d8d8" d="M 910.125 207.277344 C 910.125 207.578125 910.082031 207.878906 909.996094 208.175781 C 909.910156 208.472656 909.78125 208.757812 909.613281 209.039062 C 909.445312 209.320312 909.238281 209.582031 908.992188 209.835938 C 908.746094 210.085938 908.46875 210.320312 908.15625 210.535156 C 907.84375 210.746094 907.503906 210.9375 907.136719 211.105469 C 906.769531 211.273438 906.378906 211.417969 905.972656 211.53125 C 905.5625 211.648438 905.144531 211.734375 904.710938 211.792969 C 904.277344 211.851562 903.839844 211.882812 903.398438 211.882812 C 902.953125 211.882812 902.515625 211.851562 902.082031 211.792969 C 901.652344 211.734375 901.230469 211.648438 900.820312 211.53125 C 900.414062 211.417969 900.027344 211.273438 899.660156 211.105469 C 899.289062 210.9375 898.949219 210.746094 898.636719 210.535156 C 898.328125 210.320312 898.046875 210.085938 897.800781 209.835938 C 897.554688 209.582031 897.347656 209.320312 897.179688 209.039062 C 897.011719 208.757812 896.882812 208.472656 896.796875 208.175781 C 896.710938 207.878906 896.667969 207.578125 896.667969 207.277344 C 896.667969 206.972656 896.710938 206.675781 896.796875 206.378906 C 896.882812 206.082031 897.011719 205.792969 897.179688 205.515625 C 897.347656 205.234375 897.554688 204.96875 897.800781 204.71875 C 898.046875 204.464844 898.328125 204.234375 898.636719 204.019531 C 898.949219 203.804688 899.289062 203.613281 899.660156 203.445312 C 900.027344 203.277344 900.414062 203.136719 900.820312 203.019531 C 901.230469 202.90625 901.652344 202.816406 902.082031 202.757812 C 902.515625 202.699219 902.953125 202.671875 903.398438 202.671875 C 903.839844 202.671875 904.277344 202.699219 904.710938 202.757812 C 905.144531 202.816406 905.5625 202.90625 905.972656 203.019531 C 906.378906 203.136719 906.769531 203.277344 907.136719 203.445312 C 907.503906 203.613281 907.84375 203.804688 908.15625 204.019531 C 908.46875 204.234375 908.746094 204.464844 908.992188 204.71875 C 909.238281 204.96875 909.445312 205.234375 909.613281 205.515625 C 909.78125 205.792969 909.910156 206.082031 909.996094 206.378906 C 910.082031 206.675781 910.125 206.972656 910.125 207.277344 Z M 910.125 207.277344 " fill-opacity="1" fill-rule="nonzero"/><g clip-path="url(#9cafcd29ae)"><path fill="#333333" d="M 903.398438 212.546875 C 899.320312 212.546875 896.003906 210.183594 896.003906 207.277344 C 896.003906 204.371094 899.320312 202.007812 903.398438 202.007812 C 907.472656 202.007812 910.789062 204.371094 910.789062 207.277344 C 910.789062 210.183594 907.472656 212.546875 903.398438 212.546875 Z M 903.398438 203.335938 C 900.050781 203.335938 897.332031 205.101562 897.332031 207.277344 C 897.332031 209.449219 900.050781 211.21875 903.398438 211.21875 C 906.742188 211.21875 909.460938 209.449219 909.460938 207.277344 C 909.460938 205.101562 906.742188 203.335938 903.398438 203.335938 Z M 903.398438 203.335938 " fill-opacity="1" fill-rule="nonzero"/></g><path fill="#1e3a8a" d="M 923.292969 169.40625 C 923.292969 158.152344 913.949219 149.082031 902.597656 149.527344 C 892.449219 149.925781 884.132812 158.074219 883.539062 168.210938 C 883.070312 176.253906 887.382812 183.339844 893.898438 186.886719 C 895.550781 187.789062 896.605469 189.496094 896.605469 191.375 L 896.605469 196.792969 L 910.191406 196.792969 L 910.191406 191.382812 C 910.191406 189.492188 911.257812 187.785156 912.917969 186.875 C 919.097656 183.5 923.289062 176.945312 923.289062 169.40625 Z M 923.292969 169.40625 " fill-opacity="1" fill-rule="nonzero"/><path fill="#333333" d="M 910.855469 197.457031 L 895.941406 197.457031 L 895.941406 191.375 C 895.941406 189.757812 895.035156 188.261719 893.578125 187.46875 C 886.507812 183.617188 882.40625 176.222656 882.878906 168.171875 C 883.484375 157.757812 892.136719 149.273438 902.570312 148.863281 C 908.21875 148.648438 913.578125 150.675781 917.644531 154.582031 C 921.714844 158.496094 923.957031 163.757812 923.957031 169.402344 C 923.957031 176.925781 919.847656 183.84375 913.238281 187.457031 C 911.769531 188.257812 910.855469 189.761719 910.855469 191.382812 Z M 897.269531 196.128906 L 909.527344 196.128906 L 909.527344 191.382812 C 909.527344 189.277344 910.707031 187.328125 912.601562 186.292969 C 918.785156 182.914062 922.628906 176.445312 922.628906 169.40625 C 922.628906 164.125 920.53125 159.203125 916.722656 155.542969 C 912.917969 151.882812 907.917969 149.980469 902.621094 150.191406 C 892.863281 150.574219 884.769531 158.507812 884.203125 168.25 C 883.761719 175.78125 887.597656 182.699219 894.214844 186.304688 C 896.097656 187.328125 897.269531 189.273438 897.269531 191.375 Z M 897.269531 196.128906 " fill-opacity="1" fill-rule="nonzero"/><path fill="#aaaaaa" d="M 895.824219 192.613281 L 910.976562 192.613281 C 911.207031 192.613281 911.429688 192.65625 911.644531 192.746094 C 911.859375 192.832031 912.046875 192.960938 912.210938 193.125 C 912.375 193.289062 912.5 193.476562 912.589844 193.691406 C 912.679688 193.90625 912.722656 194.128906 912.722656 194.359375 L 912.722656 196.265625 C 912.722656 196.496094 912.679688 196.71875 912.589844 196.933594 C 912.5 197.148438 912.375 197.335938 912.210938 197.5 C 912.046875 197.664062 911.859375 197.792969 911.644531 197.878906 C 911.429688 197.96875 911.207031 198.011719 910.976562 198.011719 L 895.824219 198.011719 C 895.589844 198.011719 895.367188 197.96875 895.152344 197.878906 C 894.941406 197.792969 894.75 197.664062 894.585938 197.5 C 894.421875 197.335938 894.296875 197.148438 894.207031 196.933594 C 894.121094 196.71875 894.074219 196.496094 894.074219 196.265625 L 894.074219 194.359375 C 894.074219 194.128906 894.121094 193.90625 894.207031 193.691406 C 894.296875 193.476562 894.421875 193.289062 894.585938 193.125 C 894.75 192.960938 894.941406 192.832031 895.152344 192.746094 C 895.367188 192.65625 895.589844 192.613281 895.824219 192.613281 Z M 895.824219 192.613281 " fill-opacity="1" fill-rule="nonzero"/><path fill="#333333" d="M 910.976562 198.675781 L 895.824219 198.675781 C 894.496094 198.675781 893.410156 197.59375 893.410156 196.265625 L 893.410156 194.359375 C 893.410156 193.03125 894.496094 191.949219 895.824219 191.949219 L 910.976562 191.949219 C 912.304688 191.949219 913.386719 193.03125 913.386719 194.359375 L 913.386719 196.265625 C 913.386719 197.59375 912.304688 198.675781 910.976562 198.675781 Z M 895.824219 193.273438 C 895.226562 193.273438 894.738281 193.761719 894.738281 194.359375 L 894.738281 196.265625 C 894.738281 196.859375 895.226562 197.347656 895.824219 197.347656 L 910.976562 197.347656 C 911.574219 197.347656 912.058594 196.863281 912.058594 196.265625 L 912.058594 194.359375 C 912.058594 193.761719 911.574219 193.273438 910.976562 193.273438 Z M 895.824219 193.273438 " fill-opacity="1" fill-rule="nonzero"/><path fill="#aaaaaa" d="M 895.816406 198.011719 L 910.96875 198.011719 C 911.199219 198.011719 911.425781 198.058594 911.636719 198.144531 C 911.851562 198.234375 912.042969 198.359375 912.203125 198.523438 C 912.367188 198.6875 912.496094 198.878906 912.582031 199.089844 C 912.671875 199.304688 912.714844 199.527344 912.714844 199.761719 L 912.714844 201.667969 C 912.714844 201.898438 912.671875 202.121094 912.582031 202.335938 C 912.496094 202.550781 912.367188 202.738281 912.203125 202.902344 C 912.042969 203.066406 911.851562 203.191406 911.636719 203.28125 C 911.425781 203.371094 911.199219 203.414062 910.96875 203.414062 L 895.816406 203.414062 C 895.585938 203.414062 895.363281 203.371094 895.148438 203.28125 C 894.933594 203.191406 894.746094 203.066406 894.582031 202.902344 C 894.417969 202.738281 894.289062 202.550781 894.203125 202.335938 C 894.113281 202.121094 894.070312 201.898438 894.070312 201.667969 L 894.070312 199.761719 C 894.070312 199.527344 894.113281 199.304688 894.203125 199.089844 C 894.289062 198.878906 894.417969 198.6875 894.582031 198.523438 C 894.746094 198.359375 894.933594 198.234375 895.148438 198.144531 C 895.363281 198.058594 895.585938 198.011719 895.816406 198.011719 Z M 895.816406 198.011719 " fill-opacity="1" fill-rule="nonzero"/><path fill="#333333" d="M 910.96875 204.078125 L 895.816406 204.078125 C 894.488281 204.078125 893.402344 202.996094 893.402344 201.664062 L 893.402344 199.761719 C 893.402344 198.429688 894.488281 197.347656 895.816406 197.347656 L 910.96875 197.347656 C 912.296875 197.347656 913.378906 198.429688 913.378906 199.761719 L 913.378906 201.664062 C 913.378906 202.996094 912.296875 204.078125 910.96875 204.078125 Z M 895.816406 198.675781 C 895.21875 198.675781 894.730469 199.160156 894.730469 199.761719 L 894.730469 201.664062 C 894.730469 202.261719 895.21875 202.75 895.816406 202.75 L 910.96875 202.75 C 911.566406 202.75 912.050781 202.265625 912.050781 201.664062 L 912.050781 199.761719 C 912.050781 199.164062 911.566406 198.675781 910.96875 198.675781 Z M 895.816406 198.675781 " fill-opacity="1" fill-rule="nonzero"/><path fill="#aaaaaa" d="M 895.816406 203.414062 L 910.96875 203.414062 C 911.199219 203.414062 911.425781 203.457031 911.636719 203.546875 C 911.851562 203.632812 912.042969 203.761719 912.203125 203.925781 C 912.367188 204.089844 912.496094 204.277344 912.582031 204.492188 C 912.671875 204.707031 912.714844 204.929688 912.714844 205.160156 L 912.714844 207.066406 C 912.714844 207.296875 912.671875 207.519531 912.582031 207.734375 C 912.496094 207.949219 912.367188 208.136719 912.203125 208.300781 C 912.042969 208.464844 911.851562 208.589844 911.636719 208.679688 C 911.425781 208.769531 911.199219 208.8125 910.96875 208.8125 L 895.816406 208.8125 C 895.585938 208.8125 895.363281 208.769531 895.148438 208.679688 C 894.933594 208.589844 894.746094 208.464844 894.582031 208.300781 C 894.417969 208.136719 894.289062 207.949219 894.203125 207.734375 C 894.113281 207.519531 894.070312 207.296875 894.070312 207.066406 L 894.070312 205.160156 C 894.070312 204.929688 894.113281 204.707031 894.203125 204.492188 C 894.289062 204.277344 894.417969 204.089844 894.582031 203.925781 C 894.746094 203.761719 894.933594 203.632812 895.148438 203.546875 C 895.363281 203.457031 895.585938 203.414062 895.816406 203.414062 Z M 895.816406 203.414062 " fill-opacity="1" fill-rule="nonzero"/><path fill="#333333" d="M 910.96875 209.476562 L 895.816406 209.476562 C 894.488281 209.476562 893.402344 208.394531 893.402344 207.066406 L 893.402344 205.160156 C 893.402344 203.832031 894.488281 202.75 895.816406 202.75 L 910.96875 202.75 C 912.296875 202.75 913.378906 203.832031 913.378906 205.160156 L 913.378906 207.066406 C 913.378906 208.394531 912.296875 209.476562 910.96875 209.476562 Z M 895.816406 204.078125 C 895.21875 204.078125 894.730469 204.5625 894.730469 205.160156 L 894.730469 207.066406 C 894.730469 207.664062 895.21875 208.148438 895.816406 208.148438 L 910.96875 208.148438 C 911.566406 208.148438 912.050781 207.664062 912.050781 207.066406 L 912.050781 205.160156 C 912.050781 204.5625 911.566406 204.078125 910.96875 204.078125 Z M 895.816406 204.078125 " fill-opacity="1" fill-rule="nonzero"/><path fill="#ffffff" d="M 919.101562 167.664062 C 918.765625 167.664062 918.476562 167.410156 918.441406 167.070312 C 918.195312 164.808594 917.246094 160.574219 913.601562 157.566406 C 913.320312 157.332031 913.28125 156.914062 913.511719 156.628906 C 913.746094 156.347656 914.164062 156.304688 914.449219 156.539062 C 918.453125 159.847656 919.496094 164.46875 919.761719 166.925781 C 919.800781 167.292969 919.535156 167.617188 919.171875 167.65625 C 919.148438 167.660156 919.121094 167.660156 919.097656 167.660156 Z M 919.101562 167.664062 " fill-opacity="1" fill-rule="nonzero"/><path fill="#ffffff" d="M 912.03125 156.085938 C 911.871094 156.085938 911.710938 156.027344 911.582031 155.910156 C 910.441406 154.863281 909.125 154.230469 907.675781 154.027344 C 907.3125 153.980469 907.054688 153.644531 907.109375 153.28125 C 907.160156 152.917969 907.488281 152.660156 907.855469 152.710938 C 909.554688 152.949219 911.152344 153.714844 912.480469 154.929688 C 912.75 155.175781 912.769531 155.597656 912.519531 155.867188 C 912.390625 156.011719 912.210938 156.082031 912.03125 156.082031 Z M 912.03125 156.085938 " fill-opacity="1" fill-rule="nonzero"/><g clip-path="url(#5cc9b23ae0)"><path fill="#333333" d="M 903.398438 144.949219 C 903.035156 144.949219 902.734375 144.652344 902.734375 144.285156 L 902.734375 134.640625 C 902.734375 134.273438 903.03125 133.972656 903.398438 133.972656 C 903.765625 133.972656 904.066406 134.269531 904.066406 134.640625 L 904.066406 144.289062 C 904.066406 144.652344 903.765625 144.953125 903.398438 144.953125 Z M 903.398438 144.949219 " fill-opacity="1" fill-rule="nonzero"/></g><g clip-path="url(#eae9aa5b39)"><path fill="#333333" d="M 878.234375 168.863281 L 868.589844 168.863281 C 868.222656 168.863281 867.921875 168.566406 867.921875 168.199219 C 867.921875 167.832031 868.21875 167.535156 868.589844 167.535156 L 878.234375 167.535156 C 878.601562 167.535156 878.898438 167.832031 878.898438 168.199219 C 878.898438 168.566406 878.601562 168.863281 878.234375 168.863281 Z M 878.234375 168.863281 " fill-opacity="1" fill-rule="nonzero"/></g><g clip-path="url(#92b3c082d3)"><path fill="#333333" d="M 939.175781 168.863281 L 929.53125 168.863281 C 929.164062 168.863281 928.863281 168.566406 928.863281 168.199219 C 928.863281 167.832031 929.160156 167.535156 929.53125 167.535156 L 939.175781 167.535156 C 939.542969 167.535156 939.839844 167.832031 939.839844 168.199219 C 939.839844 168.566406 939.542969 168.863281 939.175781 168.863281 Z M 939.175781 168.863281 " fill-opacity="1" fill-rule="nonzero"/></g><path fill="#1e3a8a" d="M 921.929688 149.511719 L 928.75 142.691406 " fill-opacity="1" fill-rule="nonzero"/><path fill="#333333" d="M 921.929688 150.175781 C 921.757812 150.175781 921.589844 150.113281 921.457031 149.980469 C 921.199219 149.722656 921.199219 149.300781 921.457031 149.042969 L 928.28125 142.222656 C 928.539062 141.960938 928.957031 141.960938 929.21875 142.222656 C 929.476562 142.480469 929.476562 142.898438 929.21875 143.160156 L 922.398438 149.980469 C 922.265625 150.113281 922.097656 150.175781 921.925781 150.175781 Z M 921.929688 150.175781 " fill-opacity="1" fill-rule="nonzero"/><path fill="#1e3a8a" d="M 885.054688 149.511719 L 878.234375 142.691406 " fill-opacity="1" fill-rule="nonzero"/><path fill="#333333" d="M 885.054688 150.175781 C 884.886719 150.175781 884.71875 150.113281 884.585938 149.980469 L 877.765625 143.160156 C 877.507812 142.898438 877.507812 142.480469 877.765625 142.222656 C 878.023438 141.960938 878.445312 141.960938 878.703125 142.222656 L 885.523438 149.042969 C 885.785156 149.300781 885.785156 149.722656 885.523438 149.980469 C 885.394531 150.113281 885.226562 150.175781 885.054688 150.175781 Z M 885.054688 150.175781 " fill-opacity="1" fill-rule="nonzero"/><path fill="#1e3a8a" d="M 885.054688 186.886719 L 878.234375 193.710938 " fill-opacity="1" fill-rule="nonzero"/><path fill="#333333" d="M 878.234375 194.375 C 878.066406 194.375 877.894531 194.308594 877.765625 194.179688 C 877.507812 193.917969 877.507812 193.5 877.765625 193.242188 L 884.585938 186.417969 C 884.847656 186.160156 885.265625 186.160156 885.523438 186.417969 C 885.785156 186.679688 885.785156 187.097656 885.523438 187.355469 L 878.703125 194.179688 C 878.574219 194.308594 878.402344 194.375 878.234375 194.375 Z M 878.234375 194.375 " fill-opacity="1" fill-rule="nonzero"/><path fill="#1e3a8a" d="M 921.929688 186.886719 L 928.75 193.710938 " fill-opacity="1" fill-rule="nonzero"/><path fill="#333333" d="M 928.75 194.375 C 928.582031 194.375 928.410156 194.308594 928.28125 194.179688 L 921.460938 187.355469 C 921.199219 187.097656 921.199219 186.675781 921.460938 186.417969 C 921.71875 186.160156 922.140625 186.160156 922.398438 186.417969 L 929.21875 193.242188 C 929.480469 193.5 929.480469 193.921875 929.21875 194.179688 C 929.089844 194.308594 928.917969 194.375 928.75 194.375 Z M 928.75 194.375 " fill-opacity="1" fill-rule="nonzero"/><g clip-path="url(#8bd10b880c)"><path fill="#1e3a8a" d="M 956.558594 300.070312 L 956.558594 297.316406 C 956.558594 297.058594 956.355469 296.855469 956.097656 296.855469 L 953.632812 296.855469 L 953.632812 294.8125 C 953.632812 294.554688 953.433594 294.351562 953.171875 294.351562 L 950.8125 294.351562 L 950.8125 292.449219 C 950.8125 292.320312 950.753906 292.191406 950.652344 292.105469 C 950.550781 292.019531 950.421875 291.976562 950.277344 291.988281 C 938.109375 293.328125 925.742188 300.34375 924.445312 301.089844 L 920.816406 301.089844 C 919.503906 300.34375 907.136719 293.328125 894.96875 291.988281 C 894.839844 291.976562 894.707031 292.019531 894.609375 292.105469 C 894.507812 292.191406 894.449219 292.320312 894.449219 292.449219 L 894.449219 294.351562 L 892.101562 294.351562 C 891.84375 294.351562 891.640625 294.554688 891.640625 294.8125 L 891.640625 296.84375 L 889.179688 296.84375 C 888.921875 296.84375 888.71875 297.042969 888.71875 297.304688 L 888.71875 300.070312 L 887.089844 300.070312 C 886.832031 300.070312 886.628906 300.269531 886.628906 300.53125 L 886.628906 341.496094 C 886.628906 341.496094 902.414062 341.914062 920.6875 343.902344 L 924.574219 343.902344 C 942.863281 341.929688 958.628906 341.496094 958.628906 341.496094 L 958.628906 300.53125 C 958.628906 300.269531 958.429688 300.070312 958.167969 300.070312 Z M 955.621094 297.777344 L 955.621094 337.78125 C 955.621094 337.78125 955.621094 337.78125 955.621094 337.796875 C 953.058594 337.855469 940.300781 338.257812 928.691406 340.878906 C 934.136719 338.964844 944.246094 335.839844 953.171875 335.492188 C 953.417969 335.476562 953.621094 335.277344 953.621094 335.03125 L 953.621094 297.777344 Z M 952.699219 295.273438 L 952.699219 334.585938 C 945.167969 334.960938 936.886719 337.207031 931.226562 339.050781 C 936.167969 336.789062 943.308594 334.066406 950.378906 333.289062 C 950.609375 333.261719 950.796875 333.058594 950.796875 332.828125 L 950.796875 295.273438 Z M 925.035156 301.824219 C 926.777344 300.816406 938.355469 294.394531 949.875 292.96875 L 949.875 332.410156 C 938.902344 333.734375 927.871094 339.554688 925.035156 341.136719 Z M 921.148438 302.011719 L 924.097656 302.011719 L 924.097656 341.46875 L 921.148438 341.46875 Z M 895.386719 292.96875 C 906.890625 294.378906 918.484375 300.816406 920.226562 301.824219 L 920.226562 341.136719 C 917.390625 339.554688 906.359375 333.734375 895.386719 332.410156 Z M 892.5625 295.273438 L 894.464844 295.273438 L 894.464844 332.828125 C 894.464844 333.058594 894.636719 333.261719 894.882812 333.289062 C 901.953125 334.066406 909.09375 336.789062 914.035156 339.050781 C 908.390625 337.21875 900.09375 334.960938 892.5625 334.585938 Z M 889.640625 297.777344 L 891.640625 297.777344 L 891.640625 335.03125 C 891.640625 335.277344 891.84375 335.476562 892.089844 335.492188 C 901.015625 335.839844 911.140625 338.964844 916.566406 340.878906 C 904.945312 338.242188 892.1875 337.839844 889.640625 337.796875 C 889.640625 337.796875 889.640625 337.796875 889.640625 337.78125 Z M 889.640625 297.777344 " fill-opacity="1" fill-rule="nonzero"/></g><path fill="#1e3a8a" d="M 947.484375 298.902344 C 938.714844 300.542969 930.335938 304.734375 927.125 306.460938 C 926.894531 306.578125 926.820312 306.867188 926.9375 307.082031 C 927.023438 307.238281 927.179688 307.328125 927.339844 307.328125 C 927.410156 307.328125 927.484375 307.3125 927.554688 307.269531 C 930.722656 305.554688 939.003906 301.40625 947.644531 299.796875 C 947.886719 299.75 948.0625 299.507812 948.019531 299.261719 C 947.972656 299.015625 947.730469 298.84375 947.484375 298.902344 Z M 947.484375 298.902344 " fill-opacity="1" fill-rule="nonzero"/><path fill="#1e3a8a" d="M 947.484375 302.917969 C 938.714844 304.5625 930.335938 308.75 927.125 310.480469 C 926.894531 310.59375 926.820312 310.882812 926.9375 311.097656 C 927.023438 311.257812 927.179688 311.34375 927.339844 311.34375 C 927.410156 311.34375 927.484375 311.328125 927.554688 311.285156 C 930.722656 309.574219 939.003906 305.425781 947.644531 303.8125 C 947.886719 303.769531 948.0625 303.523438 948.019531 303.28125 C 947.972656 303.035156 947.730469 302.875 947.484375 302.917969 Z M 947.484375 302.917969 " fill-opacity="1" fill-rule="nonzero"/><path fill="#1e3a8a" d="M 947.484375 306.953125 C 938.714844 308.59375 930.335938 312.785156 927.125 314.511719 C 926.894531 314.628906 926.820312 314.914062 926.9375 315.132812 C 927.023438 315.289062 927.179688 315.375 927.339844 315.375 C 927.410156 315.375 927.484375 315.363281 927.554688 315.316406 C 930.722656 313.605469 939.003906 309.457031 947.644531 307.84375 C 947.886719 307.800781 948.0625 307.554688 948.019531 307.3125 C 947.972656 307.066406 947.730469 306.894531 947.484375 306.953125 Z M 947.484375 306.953125 " fill-opacity="1" fill-rule="nonzero"/><path fill="#1e3a8a" d="M 947.484375 310.96875 C 938.714844 312.609375 930.335938 316.800781 927.125 318.53125 C 926.894531 318.644531 926.820312 318.933594 926.9375 319.148438 C 927.023438 319.308594 927.179688 319.394531 927.339844 319.394531 C 927.410156 319.394531 927.484375 319.378906 927.554688 319.335938 C 930.722656 317.621094 939.003906 313.476562 947.644531 311.863281 C 947.886719 311.820312 948.0625 311.574219 948.019531 311.328125 C 947.972656 311.085938 947.730469 310.925781 947.484375 310.96875 Z M 947.484375 310.96875 " fill-opacity="1" fill-rule="nonzero"/><path fill="#1e3a8a" d="M 947.484375 314.988281 C 938.714844 316.628906 930.335938 320.820312 927.125 322.546875 C 926.894531 322.664062 926.820312 322.949219 926.9375 323.167969 C 927.023438 323.324219 927.179688 323.410156 927.339844 323.410156 C 927.410156 323.410156 927.484375 323.398438 927.554688 323.351562 C 930.722656 321.640625 939.003906 317.492188 947.644531 315.878906 C 947.886719 315.835938 948.0625 315.589844 948.019531 315.347656 C 947.972656 315.117188 947.730469 314.945312 947.484375 314.988281 Z M 947.484375 314.988281 " fill-opacity="1" fill-rule="nonzero"/><path fill="#1e3a8a" d="M 947.484375 319.019531 C 938.714844 320.660156 930.335938 324.851562 927.125 326.578125 C 926.894531 326.695312 926.820312 326.980469 926.9375 327.199219 C 927.023438 327.355469 927.179688 327.441406 927.339844 327.441406 C 927.410156 327.441406 927.484375 327.429688 927.554688 327.386719 C 930.722656 325.671875 939.003906 321.523438 947.644531 319.910156 C 947.886719 319.867188 948.0625 319.625 948.019531 319.378906 C 947.972656 319.132812 947.730469 318.960938 947.484375 319.019531 Z M 947.484375 319.019531 " fill-opacity="1" fill-rule="nonzero"/><path fill="#1e3a8a" d="M 947.484375 323.035156 C 938.714844 324.679688 930.335938 328.867188 927.125 330.597656 C 926.894531 330.710938 926.820312 331 926.9375 331.214844 C 927.023438 331.375 927.179688 331.460938 927.339844 331.460938 C 927.410156 331.460938 927.484375 331.445312 927.554688 331.402344 C 930.722656 329.6875 939.003906 325.542969 947.644531 323.929688 C 947.886719 323.886719 948.0625 323.640625 948.019531 323.398438 C 947.972656 323.152344 947.730469 322.992188 947.484375 323.035156 Z M 947.484375 323.035156 " fill-opacity="1" fill-rule="nonzero"/><path fill="#1e3a8a" d="M 947.484375 327.070312 C 938.714844 328.710938 930.335938 332.902344 927.125 334.628906 C 926.894531 334.742188 926.820312 335.03125 926.9375 335.246094 C 927.023438 335.40625 927.179688 335.492188 927.339844 335.492188 C 927.410156 335.492188 927.484375 335.476562 927.554688 335.433594 C 930.722656 333.722656 939.003906 329.574219 947.644531 327.960938 C 947.886719 327.917969 948.0625 327.671875 948.019531 327.429688 C 947.972656 327.183594 947.730469 327.011719 947.484375 327.070312 Z M 947.484375 327.070312 " fill-opacity="1" fill-rule="nonzero"/><path fill="#1e3a8a" d="M 918.136719 306.460938 C 914.941406 304.734375 906.546875 300.53125 897.777344 298.902344 C 897.53125 298.859375 897.285156 299.015625 897.242188 299.277344 C 897.199219 299.519531 897.359375 299.765625 897.617188 299.808594 C 906.257812 301.421875 914.539062 305.570312 917.707031 307.28125 C 917.777344 307.328125 917.847656 307.339844 917.921875 307.339844 C 918.078125 307.339844 918.238281 307.253906 918.324219 307.097656 C 918.441406 306.867188 918.367188 306.578125 918.136719 306.460938 Z M 918.136719 306.460938 " fill-opacity="1" fill-rule="nonzero"/><path fill="#1e3a8a" d="M 918.136719 310.480469 C 914.941406 308.75 906.546875 304.546875 897.777344 302.917969 C 897.53125 302.875 897.285156 303.035156 897.242188 303.292969 C 897.199219 303.539062 897.359375 303.785156 897.617188 303.828125 C 906.257812 305.441406 914.539062 309.585938 917.707031 311.300781 C 917.777344 311.34375 917.847656 311.359375 917.921875 311.359375 C 918.078125 311.359375 918.238281 311.273438 918.324219 311.113281 C 918.441406 310.882812 918.367188 310.609375 918.136719 310.480469 Z M 918.136719 310.480469 " fill-opacity="1" fill-rule="nonzero"/><path fill="#1e3a8a" d="M 918.136719 314.511719 C 914.941406 312.785156 906.546875 308.578125 897.777344 306.953125 C 897.53125 306.910156 897.285156 307.066406 897.242188 307.328125 C 897.199219 307.570312 897.359375 307.816406 897.617188 307.859375 C 906.257812 309.472656 914.539062 313.617188 917.707031 315.332031 C 917.777344 315.375 917.847656 315.390625 917.921875 315.390625 C 918.078125 315.390625 918.238281 315.304688 918.324219 315.144531 C 918.441406 314.914062 918.367188 314.628906 918.136719 314.511719 Z M 918.136719 314.511719 " fill-opacity="1" fill-rule="nonzero"/><path fill="#1e3a8a" d="M 918.136719 318.53125 C 914.941406 316.800781 906.546875 312.597656 897.777344 310.96875 C 897.53125 310.925781 897.285156 311.085938 897.242188 311.34375 C 897.199219 311.589844 897.359375 311.832031 897.617188 311.875 C 906.257812 313.488281 914.539062 317.636719 917.707031 319.351562 C 917.777344 319.394531 917.847656 319.40625 917.921875 319.40625 C 918.078125 319.40625 918.238281 319.320312 918.324219 319.164062 C 918.441406 318.933594 918.367188 318.660156 918.136719 318.53125 Z M 918.136719 318.53125 " fill-opacity="1" fill-rule="nonzero"/><path fill="#1e3a8a" d="M 918.136719 322.5625 C 914.941406 320.832031 906.546875 316.628906 897.777344 315 C 897.53125 314.957031 897.285156 315.117188 897.242188 315.375 C 897.199219 315.621094 897.359375 315.867188 897.617188 315.910156 C 906.257812 317.519531 914.539062 321.667969 917.707031 323.382812 C 917.777344 323.425781 917.847656 323.441406 917.921875 323.441406 C 918.078125 323.441406 918.238281 323.351562 918.324219 323.195312 C 918.441406 322.964844 918.367188 322.675781 918.136719 322.5625 Z M 918.136719 322.5625 " fill-opacity="1" fill-rule="nonzero"/><path fill="#1e3a8a" d="M 918.136719 326.578125 C 914.941406 324.851562 906.546875 320.644531 897.777344 319.019531 C 897.53125 318.976562 897.285156 319.132812 897.242188 319.394531 C 897.199219 319.636719 897.359375 319.882812 897.617188 319.925781 C 906.257812 321.539062 914.539062 325.6875 917.707031 327.398438 C 917.777344 327.441406 917.847656 327.457031 917.921875 327.457031 C 918.078125 327.457031 918.238281 327.371094 918.324219 327.210938 C 918.441406 326.980469 918.367188 326.707031 918.136719 326.578125 Z M 918.136719 326.578125 " fill-opacity="1" fill-rule="nonzero"/><path fill="#1e3a8a" d="M 918.136719 330.609375 C 914.941406 328.882812 906.546875 324.679688 897.777344 323.050781 C 897.53125 323.007812 897.285156 323.167969 897.242188 323.425781 C 897.199219 323.671875 897.359375 323.914062 897.617188 323.957031 C 906.257812 325.570312 914.539062 329.71875 917.707031 331.433594 C 917.777344 331.476562 917.847656 331.488281 917.921875 331.488281 C 918.078125 331.488281 918.238281 331.402344 918.324219 331.246094 C 918.441406 331 918.367188 330.726562 918.136719 330.609375 Z M 918.136719 330.609375 " fill-opacity="1" fill-rule="nonzero"/><path fill="#1e3a8a" d="M 918.136719 334.628906 C 914.941406 332.902344 906.546875 328.695312 897.777344 327.070312 C 897.53125 327.023438 897.285156 327.183594 897.242188 327.441406 C 897.199219 327.6875 897.359375 327.933594 897.617188 327.976562 C 906.257812 329.589844 914.539062 333.734375 917.707031 335.449219 C 917.777344 335.492188 917.847656 335.507812 917.921875 335.507812 C 918.078125 335.507812 918.238281 335.421875 918.324219 335.261719 C 918.441406 335.03125 918.367188 334.742188 918.136719 334.628906 Z M 918.136719 334.628906 " fill-opacity="1" fill-rule="nonzero"/><g clip-path="url(#db21e2bc48)"><path fill="#1e3a8a" d="M 942.214844 497 C 940 496.929688 937.78125 496.765625 935.585938 496.464844 C 932.238281 495.960938 929.109375 494.574219 925.996094 493.304688 C 916.683594 489.277344 908.527344 481.546875 906.109375 471.449219 C 903.898438 461.128906 906.957031 449.09375 912.878906 440.472656 C 916.550781 435.375 921.65625 431.261719 927.375 428.683594 C 931.5625 427.023438 935.976562 425.765625 940.460938 425.285156 C 942.773438 425.089844 945.097656 425.265625 947.398438 425.515625 C 950.253906 425.78125 953.25 426.113281 955.558594 427.980469 C 956.949219 428.902344 956.371094 431.078125 954.65625 431.054688 C 953.78125 431.027344 953.011719 430.566406 952.210938 430.269531 C 949.882812 429.59375 947.40625 429.675781 945.003906 429.496094 C 941.617188 429.253906 938.269531 429.84375 935.039062 430.820312 C 932.796875 431.484375 930.535156 432.125 928.425781 433.160156 C 925.6875 434.503906 923.214844 436.324219 920.9375 438.347656 C 912.882812 445.734375 909.390625 457.441406 910.296875 468.160156 C 911.328125 475.332031 915.949219 481.648438 921.90625 485.617188 C 926.058594 488.285156 930.613281 490.367188 935.40625 491.574219 C 938.621094 492.136719 941.910156 492.316406 945.167969 492.195312 C 950.941406 491.707031 956.402344 488.664062 960.703125 484.960938 C 965.640625 480.710938 968.890625 474.824219 971.203125 468.804688 C 973.238281 462.097656 972.46875 454.667969 969.8125 448.242188 C 969.160156 446.234375 968.066406 444.480469 966.699219 442.886719 C 965.035156 440.328125 962.679688 438.429688 960.378906 436.480469 C 959.78125 435.972656 959.164062 435.488281 958.527344 435.027344 C 956.847656 433.84375 957.636719 430.96875 959.664062 430.765625 C 961.503906 430.585938 962.894531 432.539062 964.25 433.539062 C 965.066406 434.238281 965.921875 434.886719 966.722656 435.605469 C 968.304688 437.015625 969.574219 438.710938 970.820312 440.410156 C 971.539062 441.328125 972.273438 442.214844 972.835938 443.242188 C 976.796875 451.113281 978.324219 460.40625 976.140625 469.019531 C 974.023438 475.578125 970.523438 481.84375 965.726562 486.820312 C 959.484375 492.902344 951.132812 497.492188 942.214844 497 Z M 934.949219 459.515625 C 933.507812 459.324219 932.554688 457.789062 933.039062 456.40625 C 933.3125 454.582031 933.574219 452.746094 933.90625 450.925781 C 934.398438 448.882812 934.289062 446.367188 935.882812 444.8125 C 936.710938 444.121094 938.019531 444.269531 938.570312 445.222656 C 939.015625 445.914062 938.851562 446.699219 938.734375 447.453125 C 938.511719 448.976562 938.375 450.507812 938.183594 452.035156 C 937.945312 453.855469 937.769531 455.679688 937.601562 457.503906 C 937.460938 458.78125 936.1875 459.6875 934.949219 459.515625 Z M 949.8125 460.941406 C 947.121094 460.304688 947.773438 458.152344 948.09375 456.109375 C 948.355469 454.144531 948.601562 452.179688 949.003906 450.242188 C 949.351562 448.832031 949.316406 447.265625 950.109375 446.011719 C 951.175781 444.546875 953.640625 445.042969 954.082031 446.796875 C 954.285156 447.511719 954.097656 448.269531 953.980469 448.988281 C 953.757812 450.523438 953.425781 452.035156 953.214844 453.566406 C 952.984375 455.304688 952.785156 457.042969 952.519531 458.777344 C 952.402344 460.117188 951.128906 461.128906 949.8125 460.941406 Z M 939.339844 478.269531 C 937.09375 477.882812 935.089844 476.71875 933.230469 475.453125 C 931.660156 474.457031 930.476562 472.988281 929.414062 471.488281 C 928.394531 469.921875 927.074219 467.292969 927.71875 465.433594 C 928.191406 464.199219 929.917969 463.699219 930.945312 464.5625 C 931.925781 465.410156 932.074219 466.8125 932.675781 467.910156 C 933.3125 469.027344 934.164062 470.035156 935.078125 470.9375 C 938.308594 473.578125 942.0625 474.542969 946.089844 473.222656 C 948.503906 472.25 950.175781 470.066406 951.59375 467.972656 C 952.824219 465.738281 956.425781 466.972656 956.023438 469.503906 C 955.808594 470.867188 953.054688 474.058594 951.941406 475.023438 C 948.660156 478.25 943.753906 479.128906 939.339844 478.269531 Z M 939.339844 478.269531 " fill-opacity="1" fill-rule="nonzero"/></g><g clip-path="url(#92077c8314)"><g clip-path="url(#afc99d02b0)"><g clip-path="url(#0d1767875c)"><g transform="matrix(1, 0, 0, 1, 0, 324)"><g clip-path="url(#6e3ac42209)"><g clip-path="url(#2b785076d0)"><g clip-path="url(#890c97bdca)"><g clip-path="url(#501d3c5a75)"><path fill="#cfcfcf" d="M 6.53125 -3.277344 L 114.742188 32.507812 L 78.957031 140.722656 L -29.257812 104.933594 Z M 6.53125 -3.277344 " fill-opacity="1" fill-rule="nonzero"/></g></g></g></g></g></g></g></g><g clip-path="url(#05d8654c1a)"><g clip-path="url(#f4c1f44a0d)"><g clip-path="url(#3b0e2b0d68)"><g transform="matrix(1, 0, 0, 1, 0, 468)"><g clip-path="url(#f6a5c910f5)"><g clip-path="url(#e322235401)"><g clip-path="url(#d788236753)"><g clip-path="url(#8ccd600cc1)"><path fill="#cfcfcf" d="M 24.285156 -3.261719 L 132.496094 32.523438 L 96.707031 140.734375 L -11.503906 104.949219 Z M 24.285156 -3.261719 " fill-opacity="1" fill-rule="nonzero"/></g></g></g></g></g></g></g></g><g clip-path="url(#483f370e9b)"><path fill="#1e3a8a" d="M 44.160156 377.640625 C 44.125 377.640625 44.054688 377.640625 43.980469 377.601562 L 16.105469 369.078125 L 16.105469 377.890625 C 17.761719 378.179688 18.984375 379.617188 18.984375 381.308594 L 18.984375 381.453125 C 18.984375 383.394531 17.4375 384.941406 15.53125 384.941406 C 13.585938 384.941406 12.039062 383.394531 12.039062 381.453125 L 12.039062 381.308594 C 12.039062 379.617188 13.300781 378.179688 14.917969 377.890625 L 14.917969 368.25 C 14.917969 368 15.097656 367.746094 15.351562 367.675781 L 43.980469 358.898438 C 44.125 358.863281 44.234375 358.863281 44.339844 358.898438 L 73.007812 367.675781 C 73.261719 367.746094 73.441406 368 73.441406 368.25 C 73.441406 368.503906 73.261719 368.753906 73.007812 368.828125 L 44.339844 377.601562 C 44.304688 377.640625 44.234375 377.640625 44.160156 377.640625 Z M 39.449219 419.6875 C 39.269531 419.6875 39.089844 419.578125 38.980469 419.398438 L 36.464844 415.804688 L 32.472656 417.671875 C 32.21875 417.78125 31.96875 417.746094 31.789062 417.566406 C 31.609375 417.386719 31.574219 417.132812 31.644531 416.882812 L 35.746094 407.421875 C 36.03125 407.960938 36.679688 408.285156 37.328125 408.214844 L 40.601562 407.746094 L 43.226562 409.796875 C 43.441406 409.976562 43.730469 410.082031 44.019531 410.121094 L 40.023438 419.328125 C 39.917969 419.507812 39.738281 419.652344 39.523438 419.652344 C 39.484375 419.6875 39.484375 419.6875 39.449219 419.6875 Z M 48.875 419.6875 C 48.875 419.6875 48.835938 419.6875 48.835938 419.652344 C 48.621094 419.652344 48.441406 419.507812 48.335938 419.328125 L 44.339844 410.121094 C 44.628906 410.082031 44.882812 409.976562 45.132812 409.796875 L 47.757812 407.746094 L 51.03125 408.214844 C 51.679688 408.285156 52.289062 407.960938 52.613281 407.421875 L 56.679688 416.882812 C 56.785156 417.132812 56.75 417.386719 56.570312 417.566406 C 56.390625 417.746094 56.101562 417.78125 55.886719 417.671875 L 51.894531 415.804688 L 49.378906 419.398438 C 49.269531 419.578125 49.089844 419.6875 48.875 419.6875 Z M 44.160156 409.148438 C 44.054688 409.148438 43.910156 409.113281 43.800781 409.039062 L 40.886719 406.738281 L 37.183594 407.242188 C 36.933594 407.3125 36.644531 407.132812 36.570312 406.882812 L 35.167969 403.464844 L 31.714844 402.0625 C 31.464844 401.953125 31.320312 401.667969 31.355469 401.414062 L 31.859375 397.746094 L 29.558594 394.796875 C 29.414062 394.582031 29.414062 394.292969 29.558594 394.078125 L 31.859375 391.128906 L 31.355469 387.457031 C 31.320312 387.171875 31.464844 386.917969 31.714844 386.8125 L 35.167969 385.410156 L 36.570312 381.957031 C 36.644531 381.703125 36.933594 381.558594 37.183594 381.597656 L 40.886719 382.097656 L 43.800781 379.832031 C 44.019531 379.652344 44.339844 379.652344 44.558594 379.832031 L 47.472656 382.097656 L 51.140625 381.597656 C 51.425781 381.558594 51.679688 381.703125 51.789062 381.957031 L 53.191406 385.410156 L 56.644531 386.8125 C 56.894531 386.917969 57.039062 387.171875 57.003906 387.457031 L 56.5 391.128906 L 58.765625 394.078125 C 58.945312 394.292969 58.945312 394.582031 58.765625 394.796875 L 56.5 397.746094 L 57.003906 401.414062 C 57.039062 401.667969 56.894531 401.953125 56.644531 402.0625 L 53.191406 403.464844 L 51.789062 406.882812 C 51.679688 407.132812 51.425781 407.277344 51.140625 407.242188 L 47.472656 406.738281 L 44.558594 409.039062 C 44.449219 409.113281 44.304688 409.148438 44.160156 409.148438 Z M 44.160156 403.25 C 49.054688 403.25 53.011719 399.292969 53.011719 394.4375 C 53.011719 389.546875 49.054688 385.589844 44.160156 385.589844 C 39.304688 385.589844 35.347656 389.546875 35.347656 394.4375 C 35.347656 399.292969 39.304688 403.25 44.160156 403.25 Z M 44.160156 386.558594 C 48.515625 386.558594 52.039062 390.085938 52.039062 394.4375 C 52.039062 398.753906 48.515625 402.3125 44.160156 402.3125 C 39.84375 402.3125 36.320312 398.753906 36.320312 394.4375 C 36.320312 390.085938 39.84375 386.558594 44.160156 386.558594 Z M 41.175781 399.328125 C 41.210938 399.328125 41.25 399.328125 41.320312 399.292969 L 44.160156 398.320312 L 47.039062 399.292969 C 47.183594 399.363281 47.328125 399.328125 47.472656 399.222656 C 47.613281 399.148438 47.6875 399.003906 47.6875 398.824219 L 47.613281 395.804688 L 49.449219 393.394531 C 49.519531 393.285156 49.558594 393.105469 49.519531 392.960938 C 49.449219 392.816406 49.339844 392.710938 49.199219 392.636719 L 46.320312 391.773438 L 44.558594 389.292969 C 44.378906 389.042969 43.945312 389.042969 43.765625 389.292969 L 42.039062 391.773438 L 39.160156 392.636719 C 39.019531 392.710938 38.875 392.816406 38.839844 392.960938 C 38.800781 393.105469 38.800781 393.285156 38.910156 393.394531 L 40.746094 395.804688 L 40.671875 398.824219 C 40.671875 399.003906 40.746094 399.148438 40.886719 399.222656 C 40.960938 399.292969 41.066406 399.328125 41.175781 399.328125 Z M 44.160156 397.316406 C 44.125 397.316406 44.054688 397.351562 44.019531 397.351562 L 41.644531 398.179688 L 41.679688 395.660156 C 41.679688 395.550781 41.679688 395.445312 41.609375 395.371094 L 40.097656 393.359375 L 42.472656 392.636719 C 42.578125 392.601562 42.6875 392.53125 42.722656 392.457031 L 44.160156 390.410156 L 45.601562 392.457031 C 45.671875 392.53125 45.746094 392.601562 45.851562 392.636719 L 48.261719 393.359375 L 46.75 395.371094 C 46.679688 395.445312 46.644531 395.550781 46.644531 395.660156 L 46.714844 398.179688 L 44.339844 397.351562 C 44.269531 397.351562 44.234375 397.316406 44.160156 397.316406 Z M 30.097656 391.8125 C 27.4375 391.34375 25.421875 389.003906 25.421875 386.234375 L 25.421875 372.925781 L 43.730469 378.539062 C 43.875 378.574219 44.019531 378.609375 44.160156 378.609375 C 44.339844 378.609375 44.484375 378.574219 44.628906 378.539062 L 62.9375 372.925781 L 62.9375 386.234375 C 62.9375 389.003906 60.886719 391.34375 58.226562 391.8125 L 57.507812 390.875 L 57.9375 387.566406 C 58.046875 386.882812 57.648438 386.199219 57.003906 385.914062 L 53.945312 384.6875 L 52.6875 381.597656 C 52.398438 380.949219 51.714844 380.554688 51.03125 380.660156 L 47.757812 381.09375 L 45.132812 379.078125 C 44.558594 378.644531 43.765625 378.644531 43.226562 379.078125 L 40.601562 381.09375 L 37.328125 380.660156 C 36.609375 380.554688 35.925781 380.949219 35.671875 381.597656 L 34.414062 384.6875 L 31.355469 385.914062 C 30.710938 386.199219 30.3125 386.882812 30.386719 387.566406 L 30.851562 390.875 Z M 30.097656 391.8125 " fill-opacity="1" fill-rule="evenodd"/></g><g clip-path="url(#47d8e5aaf7)"><path fill="#1e3a8a" d="M 33.800781 527.800781 C 35.035156 523.1875 37.414062 519.730469 40.9375 517.433594 C 44.996094 514.78125 49.460938 514.339844 54.328125 516.105469 C 54.414062 516.136719 54.496094 516.128906 54.574219 516.085938 C 55.40625 515.628906 55.859375 515.382812 55.933594 515.34375 C 66.953125 509.382812 80.527344 514.949219 84.089844 526.957031 C 84.125 527.082031 84.210938 527.160156 84.339844 527.183594 C 88.691406 528.007812 92.074219 530.125 94.496094 533.539062 C 98.136719 538.667969 98.183594 545.246094 94.671875 550.476562 C 92.011719 554.445312 87.40625 557.074219 82.53125 557.074219 C 69.871094 557.078125 53.808594 557.078125 34.351562 557.078125 C 32.566406 557.078125 30.917969 556.769531 29.417969 556.152344 C 20.640625 552.523438 17.039062 541.792969 22.605469 533.839844 C 25.171875 530.167969 28.84375 528.203125 33.613281 527.949219 C 33.707031 527.941406 33.761719 527.890625 33.789062 527.800781 Z M 36.640625 528.566406 C 39.542969 529.453125 41.847656 531.21875 43.558594 533.859375 C 43.648438 534.003906 43.710938 534.15625 43.742188 534.324219 C 43.773438 534.492188 43.769531 534.660156 43.734375 534.828125 C 43.699219 534.992188 43.632812 535.148438 43.539062 535.289062 C 43.441406 535.425781 43.320312 535.542969 43.179688 535.636719 L 43.121094 535.671875 C 42.976562 535.765625 42.816406 535.828125 42.648438 535.859375 C 42.476562 535.894531 42.308594 535.890625 42.136719 535.859375 C 41.96875 535.824219 41.8125 535.761719 41.667969 535.664062 C 41.523438 535.570312 41.402344 535.449219 41.304688 535.308594 C 36.898438 528.871094 28.34375 529.605469 24.410156 536.070312 C 20.398438 542.660156 23.910156 551.601562 31.210938 553.859375 C 32.21875 554.171875 33.777344 554.324219 35.882812 554.320312 C 50.828125 554.300781 65.796875 554.304688 80.789062 554.324219 C 83.003906 554.324219 84.648438 554.167969 85.722656 553.851562 C 94.109375 551.382812 97.253906 541.054688 91.628906 534.28125 C 89.492188 531.710938 86.578125 530.214844 82.878906 529.796875 C 82.234375 529.722656 81.859375 529.441406 81.753906 528.953125 C 80.6875 523.914062 77.894531 520.175781 73.378906 517.742188 C 67.730469 514.691406 60.644531 514.9375 55.457031 518.917969 C 54.949219 519.3125 54.496094 519.398438 54.101562 519.183594 C 51.785156 517.921875 49.371094 517.519531 46.863281 517.972656 C 41.53125 518.945312 37.742188 523.226562 36.539062 528.398438 C 36.519531 528.484375 36.550781 528.539062 36.636719 528.566406 Z M 36.640625 528.566406 " fill-opacity="1" fill-rule="nonzero"/></g></svg>